<svg xmlns="http://www.w3.org/2000/svg" xmlns:xlink="http://www.w3.org/1999/xlink" width="128" zoomAndPan="magnify" viewBox="0 0 96 95.999999" height="128" preserveAspectRatio="xMidYMid meet" version="1.0"><defs><clipPath id="d721e12cd2"><path d="M 9.21875 25.738281 L 86.296875 25.738281 L 86.296875 74.808594 L 9.21875 74.808594 Z M 9.21875 25.738281 " clip-rule="nonzero"/></clipPath><clipPath id="45dc1aeff2"><path d="M 47.757812 25.96875 C 49.59375 25.914062 50.8125 26.773438 51.914062 28.066406 C 56.800781 33.800781 61.761719 39.484375 66.683594 45.1875 C 72.417969 51.84375 78.140625 58.511719 83.855469 65.191406 C 84.492188 65.933594 85.03125 66.757812 85.613281 67.554688 C 87.152344 69.664062 85.742188 72.546875 84.226562 73.617188 C 82.011719 75.175781 79.339844 74.890625 77.570312 72.875 C 74.15625 68.996094 70.773438 65.085938 67.390625 61.183594 C 61.785156 54.707031 56.199219 48.207031 50.578125 41.730469 C 48.566406 39.417969 46.804688 39.527344 44.800781 41.867188 C 40.160156 47.308594 35.453125 52.691406 30.785156 58.109375 C 26.632812 62.941406 22.476562 67.777344 18.332031 72.621094 C 15.859375 75.496094 11.886719 75.207031 9.957031 71.996094 C 9.054688 70.492188 9.351562 67.988281 10.65625 66.460938 C 13.953125 62.59375 17.269531 58.746094 20.566406 54.886719 C 26.304688 48.175781 32.027344 41.453125 37.773438 34.746094 C 39.765625 32.421875 41.757812 30.113281 43.773438 27.800781 C 44.84375 26.570312 46.167969 25.839844 47.78125 26 " clip-rule="nonzero"/></clipPath><clipPath id="fbfa8bb2bc"><path d="M 0.21875 0.738281 L 77.296875 0.738281 L 77.296875 49.808594 L 0.21875 49.808594 Z M 0.21875 0.738281 " clip-rule="nonzero"/></clipPath><clipPath id="97c82bfd15"><path d="M 38.757812 0.96875 C 40.59375 0.914062 41.8125 1.773438 42.914062 3.066406 C 47.800781 8.800781 52.761719 14.484375 57.683594 20.1875 C 63.417969 26.84375 69.140625 33.511719 74.855469 40.191406 C 75.492188 40.933594 76.03125 41.757812 76.613281 42.554688 C 78.152344 44.664062 76.742188 47.546875 75.226562 48.617188 C 73.011719 50.175781 70.339844 49.890625 68.570312 47.875 C 65.15625 43.996094 61.773438 40.085938 58.390625 36.183594 C 52.785156 29.707031 47.199219 23.207031 41.578125 16.730469 C 39.566406 14.417969 37.804688 14.527344 35.800781 16.867188 C 31.160156 22.308594 26.453125 27.691406 21.785156 33.109375 C 17.632812 37.941406 13.476562 42.777344 9.332031 47.621094 C 6.859375 50.496094 2.886719 50.207031 0.957031 46.996094 C 0.0546875 45.492188 0.351562 42.988281 1.65625 41.460938 C 4.953125 37.59375 8.269531 33.746094 11.566406 29.886719 C 17.304688 23.175781 23.027344 16.453125 28.773438 9.746094 C 30.765625 7.421875 32.757812 5.113281 34.773438 2.800781 C 35.84375 1.570312 37.167969 0.839844 38.78125 1 " clip-rule="nonzero"/></clipPath><clipPath id="9cfa9c6d0d"><rect x="0" width="78" y="0" height="50"/></clipPath><clipPath id="899b87c04c"><path d="M 41.160156 51.664062 L 54.355469 51.664062 L 54.355469 64.855469 L 41.160156 64.855469 Z M 41.160156 51.664062 " clip-rule="nonzero"/></clipPath><clipPath id="351d4f4b44"><path d="M 54.195312 58.320312 C 54.566406 61.902344 51.085938 64.851562 47.824219 64.820312 C 43.964844 64.789062 41.164062 61.839844 41.21875 58.289062 C 41.269531 54.546875 43.71875 51.898438 47.652344 51.714844 C 50.917969 51.566406 54.492188 54.238281 54.195312 58.320312 " clip-rule="nonzero"/></clipPath><clipPath id="4a8fe28faf"><path d="M 0.160156 0.664062 L 13.355469 0.664062 L 13.355469 13.855469 L 0.160156 13.855469 Z M 0.160156 0.664062 " clip-rule="nonzero"/></clipPath><clipPath id="c3ca301564"><path d="M 13.195312 7.320312 C 13.566406 10.902344 10.085938 13.851562 6.824219 13.820312 C 2.964844 13.789062 0.164062 10.839844 0.21875 7.289062 C 0.269531 3.546875 2.71875 0.898438 6.652344 0.714844 C 9.917969 0.566406 13.492188 3.238281 13.195312 7.320312 " clip-rule="nonzero"/></clipPath><clipPath id="7e7e2f8aba"><rect x="0" width="14" y="0" height="14"/></clipPath></defs><rect x="-9.6" width="115.2" fill="#ffffff" y="-9.6" height="115.199999" fill-opacity="1"/><rect x="-9.6" width="115.2" fill="#ffffff" y="-9.6" height="115.199999" fill-opacity="1"/><g clip-path="url(#d721e12cd2)"><g clip-path="url(#45dc1aeff2)"><g transform="matrix(1, 0, 0, 1, 9, 25)"><g clip-path="url(#9cfa9c6d0d)"><g clip-path="url(#fbfa8bb2bc)"><g clip-path="url(#97c82bfd15)"><rect x="-30.12" width="138.24" fill="#ffffff" height="138.239999" y="-46.12" fill-opacity="1"/></g></g></g></g></g></g><g clip-path="url(#899b87c04c)"><g clip-path="url(#351d4f4b44)"><g transform="matrix(1, 0, 0, 1, 41, 51)"><g clip-path="url(#7e7e2f8aba)"><g clip-path="url(#4a8fe28faf)"><g clip-path="url(#c3ca301564)"><rect x="-62.12" width="138.24" fill="#ffffff" height="138.239999" y="-72.12" fill-opacity="1"/></g></g></g></g></g></g></svg>